<svg width="142" height="34" viewBox="0 0 142 34" fill="none" xmlns="http://www.w3.org/2000/svg">
<path d="M85.2427 30.231C83.6367 30.231 82.1847 29.956 80.8867 29.406C79.6107 28.856 78.5987 28.064 77.8507 27.03C77.1027 25.996 76.7177 24.775 76.6957 23.367H81.6457C81.7117 24.313 82.0417 25.061 82.6357 25.611C83.2517 26.161 84.0877 26.436 85.1437 26.436C86.2217 26.436 87.0687 26.183 87.6847 25.677C88.3007 25.149 88.6087 24.467 88.6087 23.631C88.6087 22.949 88.3997 22.388 87.9817 21.948C87.5637 21.508 87.0357 21.167 86.3977 20.925C85.7817 20.661 84.9237 20.375 83.8237 20.067C82.3277 19.627 81.1067 19.198 80.1607 18.78C79.2367 18.34 78.4337 17.691 77.7517 16.833C77.0917 15.953 76.7617 14.787 76.7617 13.335C76.7617 11.971 77.1027 10.783 77.7847 9.771C78.4667 8.759 79.4237 7.989 80.6557 7.461C81.8877 6.911 83.2957 6.636 84.8797 6.636C87.2557 6.636 89.1807 7.219 90.6547 8.385C92.1507 9.529 92.9757 11.135 93.1297 13.203H88.0477C88.0037 12.411 87.6627 11.762 87.0247 11.256C86.4087 10.728 85.5837 10.464 84.5497 10.464C83.6477 10.464 82.9217 10.695 82.3717 11.157C81.8437 11.619 81.5797 12.29 81.5797 13.17C81.5797 13.786 81.7777 14.303 82.1737 14.721C82.5917 15.117 83.0977 15.447 83.6917 15.711C84.3077 15.953 85.1657 16.239 86.2657 16.569C87.7617 17.009 88.9827 17.449 89.9287 17.889C90.8747 18.329 91.6887 18.989 92.3707 19.869C93.0527 20.749 93.3937 21.904 93.3937 23.334C93.3937 24.566 93.0747 25.71 92.4367 26.766C91.7987 27.822 90.8637 28.669 89.6317 29.307C88.3997 29.923 86.9367 30.231 85.2427 30.231ZM102.019 6.966V30H97.3991V6.966H102.019ZM131.697 6.966V30H127.077V15.018L120.906 30H117.408L111.204 15.018V30H106.584V6.966H111.831L119.157 24.093L126.483 6.966H131.697Z" fill="#50B0F5"/>
<path d="M7.26231 7.4038C7.26231 7.04177 7.35977 6.74937 7.55471 6.52658C7.91674 6.19241 8.29269 6.02532 8.68256 6.02532H16.0762C18.137 6.02532 19.8218 6.55443 21.1307 7.61266C22.4395 8.64304 23.094 10.0354 23.094 11.7899C23.094 13.0152 22.6762 14.1291 21.8408 15.1316C21.0332 16.0785 19.975 16.6911 18.6661 16.9696V17.0532C21.256 17.4987 22.9269 18.6962 23.6788 20.6456C23.9294 21.2861 24.0547 21.9962 24.0547 22.7759C24.0547 23.5557 23.9155 24.3215 23.637 25.0734C23.3864 25.7975 22.9547 26.4519 22.3421 27.0367C20.9218 28.3456 18.9446 29 16.4104 29H8.68256C8.09775 29 7.6661 28.7215 7.38762 28.1646C7.30408 27.9975 7.26231 27.8165 7.26231 27.6215V7.4038ZM10.1028 26.7861H14.9484C17.0648 26.7861 18.5826 26.4937 19.5015 25.9089C20.5598 25.2127 21.0889 24.0709 21.0889 22.4835C21.0889 20.0329 19.6269 18.6405 16.7028 18.3063C15.8117 18.2228 14.837 18.181 13.7788 18.181H10.1028V26.7861ZM20.1699 12.0823C20.1699 9.52025 18.3737 8.23924 14.7813 8.23924H10.1028V16.0924H14.8648C17.2876 16.0924 18.9167 15.3823 19.7522 13.962C20.0307 13.4608 20.1699 12.8342 20.1699 12.0823ZM28.9783 7.32025C28.9783 6.90253 29.1036 6.58228 29.3542 6.35949C29.6327 6.13671 29.8973 6.02532 30.1479 6.02532C30.3985 6.02532 30.5935 6.05317 30.7327 6.10886C30.8719 6.16456 30.9973 6.2481 31.1087 6.35949C31.3871 6.58228 31.5264 6.90253 31.5264 7.32025V27.7051C31.5264 28.1228 31.3871 28.443 31.1087 28.6658C30.8302 28.8886 30.5238 29 30.1897 29C29.8833 29 29.6049 28.9025 29.3542 28.7076C29.1036 28.4848 28.9783 28.1506 28.9783 27.7051V7.32025ZM50.2015 27.7886C50.2015 28.2063 50.0622 28.5127 49.7837 28.7076C49.5053 28.9025 49.2407 29 48.9901 29C48.7673 29 48.5724 28.9861 48.4053 28.9582C48.266 28.9025 48.1407 28.8329 48.0293 28.7494C47.7508 28.4987 47.6116 28.1924 47.6116 27.8304V26.3684C46.9432 27.8165 45.704 28.7494 43.8939 29.1671C43.3648 29.2785 42.766 29.3342 42.0977 29.3342C41.4293 29.3342 40.747 29.2228 40.0508 29C39.3825 28.7772 38.7837 28.4152 38.2546 27.9139C37.1129 26.8 36.542 25.1987 36.542 23.1101V14.2544C36.542 13.8367 36.6673 13.5304 36.9179 13.3354C37.1964 13.1405 37.5027 13.043 37.8369 13.043C38.1711 13.043 38.4635 13.1405 38.7141 13.3354C38.9926 13.5304 39.1318 13.8367 39.1318 14.2544V23.2772C39.1318 24.8089 39.4243 25.8671 40.0091 26.4519C40.6217 27.0646 41.5546 27.3709 42.8078 27.3709C44.9243 27.3709 46.3724 26.5215 47.1521 24.8228C47.4027 24.238 47.5559 23.5557 47.6116 22.7759V14.2544C47.6116 13.8646 47.7508 13.5722 48.0293 13.3772C48.3078 13.1544 48.6002 13.043 48.9065 13.043C49.2407 13.043 49.5331 13.1405 49.7837 13.3354C50.0622 13.5304 50.2015 13.8367 50.2015 14.2544V27.7886ZM69.455 20.5203C69.455 20.7709 69.3715 20.9937 69.2044 21.1886C69.0373 21.3557 68.7727 21.4392 68.4107 21.4392H56.8816C56.9373 23.5 57.4803 24.9899 58.5107 25.9089C59.5968 26.8835 60.8499 27.3709 62.2702 27.3709C63.774 27.3709 65.3753 26.8139 67.074 25.7C67.2968 25.5329 67.5196 25.4494 67.7423 25.4494C67.993 25.4494 68.1879 25.5329 68.3272 25.7C68.4664 25.8671 68.536 26.0342 68.536 26.2013C68.536 26.5354 68.4246 26.8139 68.2018 27.0367C66.5588 28.5684 64.512 29.3342 62.0613 29.3342C59.7778 29.3342 57.9259 28.5962 56.5056 27.1203C54.9461 25.5329 54.1664 23.5 54.1664 21.0215C54.1664 18.7101 54.8208 16.7747 56.1297 15.2152C57.5499 13.5165 59.4436 12.6671 61.8107 12.6671C64.2892 12.6671 66.1968 13.419 67.5335 14.9228C68.7588 16.3152 69.3993 18.181 69.455 20.5203ZM66.9069 19.7684C66.7955 18.2089 66.3221 16.9696 65.4866 16.0506C64.6512 15.1316 63.4398 14.6722 61.8525 14.6722C60.4601 14.6722 59.3183 15.1734 58.4272 16.1759C57.5639 17.1506 57.0765 18.3481 56.9651 19.7684H66.9069Z" fill="black"/>
</svg>
